<svg xmlns="http://www.w3.org/2000/svg" viewBox="8.8 3.7 110.3 110.4" width="128" height="128">
<defs><clipPath id="bulb"><path d="M36 62 A28 28 0 0 1 92 62 C92 76 82 82 78 92 L50 92 C46 82 36 76 36 62 Z"/></clipPath></defs>
<g transform="rotate(-20 64 66)" fill="none" stroke-linecap="round"><path d="M24 66 A40 14 0 0 1 104 66" stroke="#111111" stroke-width="7.3"/><path d="M24 66 A40 14 0 0 1 104 66" stroke="#E10600" stroke-width="5.5"/></g>
<path d="M88 5 Q89 15 99 16 Q89 17 88 27 Q87 17 77 16 Q87 15 88 5Z" fill="#E10600" stroke="#111111" stroke-width="1.8" stroke-linejoin="round"/>
<g clip-path="url(#bulb)"><rect x="42" y="68" width="9" height="30" rx="1" fill="#111111" stroke="#111111" stroke-width="1.8"/><rect x="54" y="54" width="9" height="44" rx="1" fill="#111111" stroke="#111111" stroke-width="1.8"/><rect x="66" y="42" width="9" height="56" rx="1" fill="#111111" stroke="#111111" stroke-width="1.8"/><rect x="78" y="30" width="9" height="68" rx="1" fill="#111111" stroke="#111111" stroke-width="1.8"/><rect x="42" y="68" width="9" height="30" rx="1" fill="#E10600" /><rect x="54" y="54" width="9" height="44" rx="1" fill="#E10600" /><rect x="66" y="42" width="9" height="56" rx="1" fill="#E10600" /><rect x="78" y="30" width="9" height="68" rx="1" fill="#E10600" /></g><path d="M36 62 A28 28 0 0 1 92 62 C92 76 82 82 78 92 L50 92 C46 82 36 76 36 62 Z" fill="none" stroke="#111111" stroke-width="1.8" stroke-linejoin="round" clip-path="url(#bulb)"/>
<line x1="51" y1="98" x2="77" y2="98" stroke="#111111" stroke-width="7.8" stroke-linecap="round"/><line x1="53" y1="104" x2="75" y2="104" stroke="#111111" stroke-width="7.8" stroke-linecap="round"/><line x1="57" y1="110" x2="71" y2="110" stroke="#111111" stroke-width="7.8" stroke-linecap="round"/><line x1="51" y1="98" x2="77" y2="98" stroke="#E10600" stroke-width="6" stroke-linecap="round"/><line x1="53" y1="104" x2="75" y2="104" stroke="#E10600" stroke-width="6" stroke-linecap="round"/><line x1="57" y1="110" x2="71" y2="110" stroke="#E10600" stroke-width="6" stroke-linecap="round"/>
<g transform="rotate(-20 64 66)" fill="none" stroke-linecap="round"><path d="M24 66 A40 14 0 0 0 104 66" stroke="#111111" stroke-width="7.3"/><path d="M24 66 A40 14 0 0 0 104 66" stroke="#E10600" stroke-width="5.5"/></g>
</svg>
